<?xml version="1.0" encoding="utf-8"?>
<!-- Generator: Adobe Illustrator 23.0.6, SVG Export Plug-In . SVG Version: 6.00 Build 0)  -->
<svg version="1.1" id="Capa_1" xmlns="http://www.w3.org/2000/svg" xmlns:xlink="http://www.w3.org/1999/xlink" x="0px" y="0px"
	 viewBox="0 0 512 512" style="enable-background:new 0 0 512 512;" xml:space="preserve">
<style type="text/css">
	.st0{fill:#ED1558;}
	.st1{fill:#FEBE10;}
	.st2{fill:#FFF200;}
	.st3{fill:#FAA61A;}
	.st4{fill:#F7C514;}
	.st5{fill:#CA1F28;}
	.st6{fill:#333333;}
</style>
<g>
	<path class="st0" d="M114.2,371.5L53,450.2l70.6-8.8l17.7,61.8l61.8-79.4l0.3-0.4c-12.2-12.4-25.6-23.5-40-33.3
		C147.6,382.3,131.1,376.1,114.2,371.5z"/>
	<path class="st0" d="M397.8,371.5c-16.9,4.6-33.4,10.8-49.2,18.5c-14.4,9.8-27.8,20.9-40,33.3l62.1,79.8l17.7-61.8l70.6,8.8
		L397.8,371.5z"/>
</g>
<path class="st1" d="M441.4,229.5c0-37,23-80.5,5.8-110.3c-17.8-30.8-67.6-32.4-98.5-50.2C318.8,51.6,293,8.8,256,8.8
	s-62.8,42.8-92.7,60.1c-30.8,17.8-80.6,19.4-98.5,50.2c-17.3,29.9,5.8,73.4,5.8,110.4s-23,80.5-5.8,110.3
	c17.8,30.8,67.6,32.4,98.5,50.2c29.9,17.3,55.7,60.1,92.7,60.1s62.8-42.8,92.7-60.1c30.8-17.8,80.6-19.4,98.5-50.2
	C464.4,310,441.4,266.5,441.4,229.5z"/>
<circle class="st2" cx="256" cy="229.5" r="133.3"/>
<path class="st0" d="M343.6,194.2h-60.5l-18.7-57.5c-1.5-4.6-6.5-7.1-11.1-5.6c-2.7,0.9-4.8,3-5.6,5.6l-18.7,57.5h-60.5
	c-4.9,0-8.8,4-8.8,8.8c0,2.8,1.4,5.5,3.6,7.1l48.9,35.6l-18.7,57.5c-1.5,4.6,1,9.6,5.7,11.1c2.7,0.9,5.6,0.4,7.9-1.3l48.9-35.6
	l48.9,35.6c3.9,2.9,9.5,2,12.3-2c1.7-2.3,2.1-5.2,1.3-7.9l-18.7-57.5l48.9-35.6c3.9-2.9,4.8-8.4,1.9-12.3
	C349,195.6,346.4,194.2,343.6,194.2z"/>
<path class="st3" d="M447.1,119.2c-0.4-0.7-0.9-1.2-1.3-1.9c-13,24.7-40.5,63.6-58,85.3c11.3,64.2-21.4,128.6-89.1,153.3
	c-59.4,12.6-80.2,4.7-123.4-23.9c-26.5,5.1-77.8,12.3-104.7,12.3c-1,0-1.9-0.1-2.8-0.1c19.8,26.6,66.2,28.9,95.5,45.9
	c29.9,17.3,55.7,60.1,92.7,60.1s62.8-42.8,92.7-60.1c30.8-17.8,80.6-19.4,98.5-50.2c17.3-29.9-5.8-73.4-5.8-110.4
	S464.4,149,447.1,119.2z"/>
<path class="st4" d="M308.2,271.4l10.3,31.8c1.5,4.6-1,9.6-5.7,11.1c-2.7,0.9-5.6,0.4-7.9-1.3l-29.7-21.6
	c-38.8,21.5-56.4,32-99.9,40.4c48.2,37.5,119.7,39.6,174.9-12c31.6-36.2,45.7-75.2,37.6-117.4C361.6,235.1,342.7,248,308.2,271.4z"
	/>
<g>
	<path class="st5" d="M318.5,303.3l-10.3-31.8c-10.6,7.2-21.6,13.9-32.9,20.1l29.7,21.6c3.9,2.9,9.5,2,12.3-2
		C318.9,308.9,319.4,306,318.5,303.3z"/>
	<path class="st5" d="M384,423.7c22.9,0,45.5,5.1,66.1,15l-52.3-67.2c-16.9,4.6-33.4,10.8-49.2,18.5c-14.4,9.8-27.8,20.9-40,33.3
		l11.2,14.4C340,428.5,361.9,423.7,384,423.7z"/>
	<path class="st5" d="M163.3,390.1c-15.7-7.7-32.2-13.9-49.2-18.5l-2.7,3.5c29.8,21.5,47.4,56,47.5,92.8c0,4.6-0.3,9.2-0.9,13.8
		l45-57.9l0.3-0.4C191.1,411,177.7,399.9,163.3,390.1z"/>
</g>
<path class="st6" d="M454.8,114.8c-13.1-22.6-39.5-31-65-39.1c-12.7-3.5-25-8.3-36.7-14.4c-10.6-6.9-20.5-14.9-29.4-23.8
	C304.8,19.9,283.3,0,256,0s-48.8,19.9-67.7,37.4c-8.9,9-18.8,17-29.4,23.8c-11.7,6-24,10.8-36.7,14.3c-25.5,8.1-51.9,16.5-65,39.1
	c-12.7,21.9-6.9,48.6-1.4,74.3c3.3,13.2,5.3,26.8,6,40.5c-0.6,13.7-2.6,27.2-6,40.5c-5.5,25.8-11.3,52.5,1.4,74.3
	c10.1,15.1,25.1,26.3,42.5,31.5L46,444.8c-3,3.8-2.3,9.4,1.6,12.4c1.8,1.4,4.2,2.1,6.5,1.8l63.1-7.9l15.6,54.5
	c0.9,3.2,3.5,5.6,6.8,6.2c0.6,0.1,1.1,0.2,1.7,0.2c2.7,0,5.3-1.3,7-3.4l56.4-72.5c13.9,13.5,32.1,21.6,51.4,23
	c19.3-1.3,37.5-9.4,51.4-23l56.4,72.5c1.7,2.2,4.2,3.4,7,3.4c0.6,0,1.1-0.1,1.7-0.2c3.3-0.6,5.9-3,6.8-6.2l15.6-54.5l63.1,7.9
	c4.8,0.6,9.3-2.8,9.9-7.7c0.3-2.3-0.4-4.7-1.8-6.5l-53.7-69.1c17.4-5.2,32.4-16.3,42.5-31.5c12.6-21.9,6.9-48.6,1.4-74.3
	c-3.3-13.2-5.4-26.8-6-40.4c0.6-13.7,2.6-27.2,6-40.5C461.7,163.3,467.4,136.6,454.8,114.8z M144.9,484L132.1,439
	c-1.2-4.2-5.3-6.9-9.6-6.3l-49.4,6.2l44.3-57l4.9,1.6c12.7,3.5,25,8.3,36.7,14.3c10.6,6.9,20.5,14.9,29.4,23.8l3,2.8L144.9,484z
	 M439,438.8l-49.4-6.2c-4.3-0.5-8.4,2.1-9.6,6.3L367,484l-46.4-59.6l3-2.8c8.9-9,18.8-17,29.4-23.8c11.7-6,24-10.8,36.7-14.3
	l4.9-1.6L439,438.8z M438.9,273.7c5.1,23.6,9.8,45.8,0.6,61.8c-9.7,16.7-31.7,23.7-55,31.1c-13.9,3.9-27.4,9.2-40.2,15.9
	c-11.8,7.5-22.7,16.3-32.6,26.2c-18.2,16.8-35.3,32.7-55.7,32.7s-37.5-15.9-55.7-32.7c-9.9-9.9-20.8-18.7-32.6-26.2
	c-12.8-6.7-26.3-12-40.2-15.9c-23.3-7.4-45.4-14.4-55-31.1c-9.2-16-4.5-38.2,0.6-61.8c3.6-14.5,5.8-29.2,6.4-44.1
	c-0.6-14.9-2.7-29.7-6.4-44.1c-5.1-23.6-9.8-45.8-0.6-61.8c9.7-16.7,31.7-23.7,55-31.1c13.9-3.9,27.4-9.2,40.2-15.9
	c11.8-7.5,22.7-16.3,32.6-26.2c18.2-16.8,35.3-32.7,55.7-32.7s37.5,15.9,55.7,32.7c9.9,9.9,20.8,18.7,32.6,26.2
	c12.8,6.7,26.3,12,40.2,15.9c23.3,7.4,45.4,14.4,55,31.1c9.2,16,4.5,38.2-0.6,61.8c-3.6,14.5-5.8,29.2-6.4,44.1
	C433.1,244.4,435.3,259.2,438.9,273.7z"/>
<path class="st6" d="M343.6,185.4h-54l-16.8-51.4c-3-9.3-13-14.3-22.3-11.3c-5.3,1.7-9.5,5.9-11.3,11.3l-16.7,51.4h-54.1
	c-9.8,0-17.7,7.9-17.7,17.6c0,5.6,2.7,11,7.3,14.3l43.8,31.8l-16.7,51.4c-3,9.3,2.1,19.2,11.3,22.2c5.4,1.7,11.3,0.8,15.8-2.5
	l43.8-31.8l43.8,31.8c6.2,4.6,14.6,4.6,20.8,0c6.3-4.4,8.9-12.5,6.4-19.7l-16.7-51.4l43.8-31.8c7.9-5.7,9.6-16.8,3.9-24.7
	C354.5,188.1,349.2,185.4,343.6,185.4z M343.6,203l-48.9,35.5c-3.1,2.3-4.4,6.2-3.2,9.9l18.7,57.5l-48.9-35.6
	c-3.1-2.2-7.3-2.2-10.4,0L201.9,306l18.7-57.5c1.2-3.6-0.1-7.6-3.2-9.9L168.4,203h60.5c3.8,0,7.2-2.5,8.4-6.1l18.7-57.5l18.7,57.5
	c1.2,3.6,4.6,6.1,8.4,6.1L343.6,203z"/>
<path class="st6" d="M396,229.5c0-77.2-62.8-140-140-140c-21,0-41.2,4.5-60,13.5c-5,2.4-7.1,8.3-4.7,13.3c2.4,5,8.3,7.1,13.3,4.7
	c16.1-7.7,33.5-11.6,51.5-11.6c66.2,0,120,53.8,120,120s-53.8,120-120,120s-120-53.8-120-120c0-17.5,3.7-34.4,11-50.2
	c2.3-5,0.1-11-4.9-13.3c-5-2.3-11-0.1-13.3,4.9c-8.5,18.4-12.8,38.2-12.8,58.6c0,77.2,62.8,140,140,140S396,306.7,396,229.5
	L396,229.5z"/>
<path class="st6" d="M163.6,148.1c5.5,0,10-4.5,10-10c0-5.5-4.5-10-10-10h0c-5.5,0-10,4.5-10,10C153.6,143.7,158,148.1,163.6,148.1z
	"/>
</svg>
