<?xml version="1.0" encoding="utf-8"?>
<!-- Generator: Adobe Illustrator 23.0.6, SVG Export Plug-In . SVG Version: 6.00 Build 0)  -->
<svg version="1.1" id="Слой_1" xmlns="http://www.w3.org/2000/svg" xmlns:xlink="http://www.w3.org/1999/xlink" x="0px" y="0px"
	 viewBox="0 0 220 120" style="enable-background:new 0 0 220 120;" xml:space="preserve">
<style type="text/css">
	.st0{fill:#D0DDED;}
	.st1{fill:#FFDD50;}
	.st2{fill:#FF9711;}
	.st3{fill:#333333;}
</style>
<path class="st0" d="M160,120H60C26.9,120,0,93.1,0,60v0C0,26.9,26.9,0,60,0l100,0c33.1,0,60,26.9,60,60v0
	C220,93.1,193.1,120,160,120z"/>
<g>
	<path class="st1" d="M73.5,19.5c-4.1,5-4.1,12.3-0.9,19.1c2.1,4.7,1.4,10.2-1.8,14.1L35.4,96.3c-0.1,0.1-0.2,0.2-0.3,0.4
		c-1.4,2.1-0.9,5.1,1.3,6.5c2,1.3,4.7,0.9,6.2-1l35.3-43.5c3.2-4,8.3-5.7,13.2-4.5c7.2,2,14.2,0.5,18.2-4.5c3.1-3.8,3.9-9,2.6-14.3
		c-0.7-2.6-0.8-5.4-0.3-8.1c0.5-2.4,0.2-5-0.7-7.3c-2.6-6.5-9.9-9.7-16.3-7c-2.5,1-5.2,1.4-7.8,1.2C81.5,13.9,76.7,15.6,73.5,19.5
		L73.5,19.5z M96.3,28.6c-2.1-1.8-2.4-4.9-0.7-7c0,0,0,0,0,0c1.7-2.1,4.8-2.4,6.9-0.7c2.1,1.8,2.4,4.9,0.7,7
		C101.5,30.1,98.4,30.4,96.3,28.6L96.3,28.6z"/>
	<path class="st2" d="M36.8,94.6l-10.8-9l7.1-8.8l10.8,9L36.8,94.6z"/>
	<path class="st2" d="M47.8,81.1l-6.9-5.8l5.5-6.8l6.9,5.8L47.8,81.1z"/>
	<g>
		<path class="st3" d="M56.6,82.8c-0.5,0-1,0.3-1.3,0.7L54.9,84c-0.3,0.4-0.5,0.9-0.4,1.4c0,0.5,0.3,1,0.7,1.3
			c0.3,0.3,0.8,0.4,1.2,0.4c0.1,0,0.1,0,0.2,0c0.5,0,1-0.3,1.3-0.7l0.4-0.5c0.7-0.8,0.5-2-0.3-2.7C57.6,82.9,57.1,82.8,56.6,82.8z"
			/>
		<path class="st3" d="M53.8,88.3c-0.4-0.3-0.9-0.5-1.4-0.4c-0.5,0.1-1,0.3-1.3,0.7l-10,12.3c-0.9,1.1-2.5,1.4-3.7,0.7
			c-0.6-0.4-1.1-1.1-1.2-1.9c-0.1-0.8,0.1-1.5,0.6-2.1l35.4-43.6c3.7-4.5,4.5-10.8,2.1-16.2c-1.8-3.6-2.4-7.5-1.9-11.5l-0.4-0.1h0
			l0,0h0l0.4,0c0.2-1-0.5-2.1-1.6-2.2c-0.5-0.1-1,0-1.4,0.3c-0.4,0.3-0.7,0.7-0.8,1.3c-0.7,4.8,0,9.6,2.2,13.8c1.8,4,1.2,8.7-1.6,12
			L53.1,71.5l-5.4-4.6c-0.4-0.3-0.9-0.5-1.4-0.4c-0.5,0-1,0.3-1.3,0.7L39.4,74c-0.6,0.8-0.5,2,0.3,2.7c0.4,0.3,0.9,0.5,1.4,0.5
			c0.5,0,1-0.3,1.3-0.7l4.3-5.3l4,3.3l-6.9,8.6l-9.3-7.7c-0.4-0.3-0.9-0.5-1.4-0.4c-0.5,0-1,0.3-1.3,0.7l-7.1,8.8h0l0,0
			c-0.7,0.8-0.5,2,0.3,2.7l9.3,7.7L34,95.1c-1.1,1.4-1.6,3.1-1.5,4.8l0,0.3c0.3,1.8,1.3,3.5,2.8,4.6c1.1,0.7,2.4,1.1,3.6,1.1
			c1.9,0,3.9-0.9,5.2-2.5l10-12.4C54.8,90.2,54.7,89,53.8,88.3z M41.3,86.1l-4.7,5.8l-7.8-6.5l4.7-5.8L41.3,86.1z"/>
		<path class="st3" d="M113.8,34.9c-0.6-2.4-0.7-4.9-0.3-7.2c1-5.3-0.9-10.7-5-14.2h0c-4.1-3.5-9.7-4.3-14.6-2.3
			c-2.2,0.9-4.6,1.2-7,1.1c-3.3-0.2-6.6,0.4-9.6,1.8c-0.9,0.5-1.3,1.6-0.9,2.6c0.2,0.5,0.6,0.8,1.1,1c0.5,0.2,1,0.1,1.4-0.1
			c2.4-1.1,5.1-1.6,7.8-1.5c2.9,0.2,5.9-0.3,8.7-1.3c1.9-0.8,4-1,6.1-0.6c5.7,1.2,9.5,6.9,8.3,12.7c-0.5,2.9-0.4,6,0.3,8.9
			c1.2,4.9,0.4,9.4-2.2,12.6c-3.5,4.3-9.6,5.7-16.3,3.9c-5.6-1.5-11.6,0.5-15.2,5.1L59.1,78.8c-0.7,0.8-0.5,2,0.3,2.7
			c0.3,0.3,0.8,0.4,1.2,0.4c0.1,0,0.1,0,0.2,0c0.5,0,1-0.3,1.3-0.7l17.3-21.4c2.7-3.4,7.1-4.9,11.2-3.8c8.1,2.2,15.8,0.3,20.2-5.1
			C114.3,46.7,115.3,41.1,113.8,34.9z"/>
		<path class="st3" d="M99.1,21.8c0.8-0.1,1.6,0.2,2.2,0.7c0.4,0.3,0.9,0.5,1.4,0.4c0.5,0,1-0.3,1.3-0.7c0.6-0.8,0.6-2-0.2-2.7
			l-0.1-0.1c-1.4-1.2-3.2-1.7-5-1.6c-1.8,0.2-3.4,1.1-4.6,2.5c-2.4,2.9-2,7.3,0.9,9.7c1.2,1,2.8,1.6,4.3,1.6c0.2,0,0.4,0,0.6,0
			c1.8-0.2,3.4-1.1,4.6-2.5c0.7-0.8,0.5-2.1-0.3-2.7c-0.4-0.3-0.9-0.5-1.4-0.4c-0.5,0.1-1,0.3-1.3,0.7c-0.5,0.6-1.2,1-2,1.1
			c-0.8,0.1-1.6-0.2-2.2-0.7c-1.3-1.1-1.5-3-0.4-4.3C97.6,22.2,98.3,21.8,99.1,21.8z"/>
		<path class="st3" d="M72.3,21c0.3,0.3,0.8,0.4,1.2,0.4c0.1,0,0.1,0,0.2,0c0.5-0.1,1-0.3,1.3-0.7c0.1-0.1,0.2-0.2,0.3-0.3l0,0
			c0.7-0.8,0.6-2-0.2-2.7c-0.4-0.3-0.9-0.5-1.4-0.5c-0.5,0-1,0.3-1.3,0.7c-0.1,0.2-0.3,0.3-0.4,0.5C71.4,19.1,71.5,20.3,72.3,21z"/>
	</g>
</g>
</svg>
