<?xml version="1.0" encoding="utf-8"?>
<!-- Generator: Adobe Illustrator 23.0.6, SVG Export Plug-In . SVG Version: 6.00 Build 0)  -->
<svg version="1.1" id="Слой_1" xmlns="http://www.w3.org/2000/svg" xmlns:xlink="http://www.w3.org/1999/xlink" x="0px" y="0px"
	 viewBox="0 0 220 120" style="enable-background:new 0 0 220 120;" xml:space="preserve">
<style type="text/css">
	.st0{fill:#D0DDED;}
	.st1{fill:#FEBE10;}
	.st2{fill:#FFF200;}
	.st3{fill:#ED1558;}
	.st4{fill:#FAA61A;}
	.st5{fill:#F7C514;}
	.st6{fill:#CA1F28;}
	.st7{fill:#333333;}
</style>
<path class="st0" d="M160,120H60C26.9,120,0,93.1,0,60v0C0,26.9,26.9,0,60,0l100,0c33.1,0,60,26.9,60,60v0
	C220,93.1,193.1,120,160,120z"/>
<g>
	<path class="st1" d="M102.2,60c0-8.1,5-17.5,1.3-24C99.6,29.3,88.8,28.9,82,25c-6.5-3.8-12.1-13.1-20.2-13.1S48.2,21.2,41.6,25
		c-6.7,3.9-17.6,4.2-21.5,10.9c-3.8,6.5,1.3,16,1.3,24s-5,17.5-1.3,24c3.9,6.7,14.7,7.1,21.5,10.9c6.5,3.8,12.1,13.1,20.2,13.1
		S75.5,98.7,82,94.9c6.7-3.9,17.6-4.2,21.5-10.9C107.3,77.5,102.2,68,102.2,60z"/>
	<ellipse class="st2" cx="61.8" cy="60" rx="29" ry="29"/>
	<path class="st3" d="M80.9,52.3H67.7l-4.1-12.5c-0.3-1-1.4-1.5-2.4-1.2c-0.6,0.2-1,0.7-1.2,1.2L56,52.3H42.8
		c-1.1,0-1.9,0.9-1.9,1.9c0,0.6,0.3,1.2,0.8,1.5l10.7,7.8L48.2,76c-0.3,1,0.2,2.1,1.2,2.4c0.6,0.2,1.2,0.1,1.7-0.3l10.7-7.8
		l10.7,7.8c0.8,0.6,2.1,0.4,2.7-0.4c0.4-0.5,0.5-1.1,0.3-1.7l-4.1-12.5L82,55.7c0.8-0.6,1-1.8,0.4-2.7
		C82.1,52.6,81.5,52.3,80.9,52.3z"/>
	<path class="st4" d="M103.5,36c-0.1-0.2-0.2-0.3-0.3-0.4c-2.8,5.4-8.8,13.9-12.6,18.6c2.5,14-4.7,28-19.4,33.4
		c-12.9,2.7-17.5,1-26.9-5.2c-5.8,1.1-17,2.7-22.8,2.7c-0.2,0-0.4,0-0.6,0c4.3,5.8,14.4,6.3,20.8,10c6.5,3.8,12.1,13.1,20.2,13.1
		S75.5,98.7,82,95c6.7-3.9,17.6-4.2,21.5-10.9c3.8-6.5-1.3-16-1.3-24S107.3,42.5,103.5,36z"/>
	<path class="st5" d="M73.2,69.1l2.2,6.9c0.3,1-0.2,2.1-1.2,2.4c-0.6,0.2-1.2,0.1-1.7-0.3L66,73.5c-8.5,4.7-12.3,7-21.8,8.8
		c10.5,8.2,26.1,8.6,38.1-2.6c6.9-7.9,10-16.4,8.2-25.6C84.9,61.2,80.7,64,73.2,69.1z"/>
	<g>
		<path class="st6" d="M75.5,76.1l-2.2-6.9c-2.3,1.6-4.7,3-7.2,4.4l6.5,4.7c0.8,0.6,2.1,0.4,2.7-0.4C75.5,77.3,75.7,76.7,75.5,76.1z
			"/>
	</g>
	<path class="st7" d="M31.6,93.2l1.1,0.3c2.8,0.8,5.4,1.8,8,3.1c2.3,1.5,4.5,3.2,6.4,5.2l0.7,0.6l2.9,2.5c3,2.9,7,4.7,11.2,5
		c4.2-0.3,8.2-2,11.2-5l3.5-3.2c1.9-2,4.1-3.7,6.4-5.2c2.5-1.3,5.2-2.4,8-3.1l1.1-0.3l3.9-1.4c3.8-1.1,7.1-3.6,9.3-6.9
		c2.7-4.8,1.5-10.6,0.3-16.2c-0.7-2.9-1.2-5.8-1.3-8.8c0.1-3,0.6-5.9,1.3-8.8c1.2-5.6,2.4-11.4-0.3-16.2c-2.9-4.9-8.6-6.8-14.2-8.5
		c-2.8-0.8-5.4-1.8-8-3.1c-2.3-1.5-4.5-3.2-6.4-5.2c-4.1-3.8-8.8-8.2-14.8-8.2s-10.6,4.3-14.8,8.1c-1.9,2-4.1,3.7-6.4,5.2
		c-2.5,1.3-5.2,2.4-8,3.1C27.1,28.2,21.4,30,18.5,35c-2.8,4.8-1.5,10.6-0.3,16.2c0.7,2.9,1.2,5.8,1.3,8.8c-0.1,3-0.6,5.9-1.3,8.8
		C17,74.4,15.8,80.2,18.5,85c2.2,3.3,5.5,5.7,9.3,6.9L31.6,93.2z M101.7,69.6c1.1,5.1,2.1,10,0.1,13.5c-2.1,3.6-6.9,5.2-12,6.8
		c-3,0.8-6,2-8.8,3.5c-2.6,1.6-4.9,3.6-7.1,5.7c-4,3.7-7.7,7.1-12.1,7.1s-8.2-3.5-12.1-7.1c-2.2-2.2-4.5-4.1-7.1-5.7
		c-2.8-1.5-5.7-2.6-8.8-3.5c-5.1-1.6-9.9-3.1-12-6.8c-2-3.5-1-8.3,0.1-13.5c0.8-3.2,1.3-6.4,1.4-9.6c-0.1-3.2-0.6-6.5-1.4-9.6
		c-1.1-5.1-2.1-10-0.1-13.5c2.1-3.6,6.9-5.2,12-6.8c3-0.8,6-2,8.8-3.5c2.6-1.6,4.9-3.6,7.1-5.7c4-3.7,7.7-7.1,12.1-7.1
		c4.4,0,8.2,3.5,12.1,7.1c2.2,2.2,4.5,4.1,7.1,5.7c2.8,1.5,5.7,2.6,8.8,3.5c5.1,1.6,9.9,3.1,12,6.8c2,3.5,1,8.3-0.1,13.5
		c-0.8,3.2-1.3,6.4-1.4,9.6C100.4,63.2,100.9,66.5,101.7,69.6z"/>
	<path class="st7" d="M80.9,50.4H69.2l-3.7-11.2c-0.7-2-2.8-3.1-4.9-2.5c-1.2,0.4-2.1,1.3-2.5,2.5l-3.6,11.2H42.8
		c-2.1,0-3.9,1.7-3.9,3.8c0,1.2,0.6,2.4,1.6,3.1l9.5,6.9l-3.6,11.2c-0.7,2,0.5,4.2,2.5,4.8c1.2,0.4,2.5,0.2,3.4-0.5l9.5-6.9l9.5,6.9
		c1.4,1,3.2,1,4.5,0c1.4-1,1.9-2.7,1.4-4.3l-3.6-11.2l9.5-6.9c1.7-1.2,2.1-3.7,0.8-5.4C83.3,51,82.1,50.4,80.9,50.4z M80.9,54.2
		l-10.7,7.7c-0.7,0.5-1,1.4-0.7,2.2l4.1,12.5L63,68.9c-0.7-0.5-1.6-0.5-2.3,0l-10.7,7.8l4.1-12.5c0.3-0.8,0-1.7-0.7-2.2l-10.7-7.8
		h13.2c0.8,0,1.6-0.5,1.8-1.3l4.1-12.5l4.1,12.5c0.3,0.8,1,1.3,1.8,1.3H80.9z"/>
	<path class="st7" d="M92.3,60c0-16.8-13.7-30.5-30.5-30.5c-4.6,0-9,1-13.1,2.9c-1.1,0.5-1.5,1.8-1,2.9s1.8,1.5,2.9,1
		c3.5-1.7,7.3-2.5,11.2-2.5C76.3,33.8,88,45.5,88,60S76.3,86.1,61.9,86.1S35.7,74.4,35.7,60c0-3.8,0.8-7.5,2.4-10.9
		c0.5-1.1,0-2.4-1.1-2.9c-1.1-0.5-2.4,0-2.9,1.1c-1.9,4-2.8,8.3-2.8,12.8c0,16.8,13.7,30.5,30.5,30.5S92.3,76.8,92.3,60L92.3,60z"/>
	<path class="st7" d="M41.7,42.3c1.2,0,2.2-1,2.2-2.2c0-1.2-1-2.2-2.2-2.2l0,0c-1.2,0-2.2,1-2.2,2.2C39.5,41.3,40.5,42.3,41.7,42.3z
		"/>
</g>
</svg>
