<svg height="511pt" viewBox="0 0 511.99997 511" width="511pt" xmlns="http://www.w3.org/2000/svg"><path d="m76 157h360v348h-360zm0 0" fill="#ffd659"/><path d="m406 157h30v348h-30zm0 0" fill="#ffbd54"/><path d="m76 157-68.058594 82.179688c-1.046875 1.308593-.117187 3.25 1.5625 3.25h93.332032zm0 0" fill="#cfd8e0"/><path d="m436 157 68.058594 82.179688c1.046875 1.308593.117187 3.25-1.5625 3.25h-93.332032zm0 0" fill="#cfd8e0"/><path d="m226 157h60v348h-60zm0 0" fill="#e64152"/><path d="m436 301v60h-360v-60zm0 0" fill="#f54558"/><path d="m436 301v60h-30v-60zm0 0" fill="#e64152"/><path d="m185.722656 38.804688c4.054688 20.089843-3.515625 38.558593-23.832031 42.644531-20.3125 4.085937-44.203125-15.238281-43.886719-35.734375.296875-19.09375 8.882813-32.921875 29.195313-37.007813 20.316406-4.089843 34.464843 10.011719 38.523437 30.097657zm0 0" fill="#ab725c"/><path d="m326.277344 38.804688c-4.054688 20.089843 3.515625 38.558593 23.832031 42.644531 20.3125 4.085937 44.203125-15.238281 43.886719-35.734375-.296875-19.09375-8.882813-32.921875-29.195313-37.007813-20.316406-4.089843-34.464843 10.011719-38.523437 30.097657zm0 0" fill="#9e6955"/><path d="m365.5 122.285156c0 57.992188-35.667969 99.617188-109.5 99.617188-73.835938 0-109.5-41.625-109.5-99.617188 0-57.988281 18.625-110.382812 109.5-110.382812s109.5 52.394531 109.5 110.382812zm0 0" fill="#ba8068"/><path d="m256 11.902344c-5.238281 0-10.230469.183594-15 .523437 77.949219 5.546875 94.5 55.214844 94.5 109.863281 0 53.910157-30.835938 93.675782-94.5 99 4.8125.402344 9.808594.613282 15 .613282 73.832031 0 109.5-41.625 109.5-99.613282 0-57.988281-18.625-110.386718-109.5-110.386718zm0 0" fill="#ab725c"/><path d="m219.445312 131.007812c0-19.875 16.367188-27.507812 36.554688-27.507812 18.859375 0 36.554688 7.632812 36.554688 27.507812 0 19.871094-16.367188 35.980469-36.554688 35.980469s-36.554688-16.109375-36.554688-35.980469zm0 0" fill="#704a3c"/><path d="m76 157-20.832031 105.28125h401.664062l-20.832031-105.28125zm0 0" fill="#e1eaf0"/><path d="m509.902344 234.488281c-.027344-.03125-.050782-.0625-.078125-.09375l-68.035157-82.15625c-.082031-.101562-.171874-.203125-.261718-.300781-.011719-.015625-.023438-.027344-.035156-.039062-.023438-.027344-.050782-.054688-.078126-.082032-.019531-.023437-.042968-.042968-.0625-.066406-.011718-.011719-.027343-.027344-.039062-.039062-.796875-.804688-1.742188-1.394532-2.753906-1.761719-.003906-.003907-.007813-.003907-.007813-.003907-.050781-.015624-.097656-.035156-.144531-.050781-.003906 0-.011719-.003906-.019531-.007812-.042969-.015625-.085938-.027344-.128907-.042969-.019531-.003906-.039062-.011719-.054687-.015625-.035156-.007813-.070313-.019531-.105469-.03125-.054687-.015625-.109375-.03125-.164062-.046875-.003906 0-.011719 0-.015625-.003906-.054688-.011719-.105469-.027344-.15625-.039063-.007813 0-.011719-.003906-.019531-.003906-.050782-.011719-.097657-.023437-.148438-.035156-.011719-.003907-.023438-.003907-.035156-.007813-.046875-.007812-.09375-.019531-.140625-.027344-.007813 0-.019531-.003906-.03125-.007812-.046875-.007812-.09375-.015625-.140625-.023438-.011719 0-.023438-.003906-.039063-.007812-.039062-.003906-.082031-.011719-.125-.019531-.019531 0-.039062-.003907-.058593-.007813-.035157-.003906-.070313-.007812-.105469-.011718-.023438-.003907-.046875-.007813-.066407-.007813-.03125-.003906-.0625-.007813-.09375-.011719s-.058593-.003906-.089843-.007812c-.015625 0-.03125-.003906-.050781-.003906-.226563-.019532-.460938-.027344-.691407-.027344h-65.671875c1.28125-6.027344 2.117188-12.324219 2.5-18.824219.242188-4.132813-2.914062-7.683594-7.046875-7.925781-4.160156-.246094-7.683593 2.914062-7.929687 7.046875-.402344 6.886719-1.378906 13.492187-2.910156 19.703125h-58.964844c2.714844-5.695313 4.144531-11.96875 4.144531-18.488282 0-21.597656-16.878906-35.011718-44.046875-35.011718-27.582031 0-44.046875 13.089844-44.046875 35.011718 0 6.519532 1.429687 12.792969 4.144531 18.488282h-58.964844c-2.078124-8.425782-3.128906-17.550782-3.128906-27.210938 0-15.0625 1.28125-27.84375 3.921875-39.074218.003907-.027344.011719-.050782.015625-.074219 4.921875-20.988281 14.5625-36.253907 29.476563-46.675781.070312-.046876.140625-.09375.210937-.144532 16.1875-11.226562 39.191406-16.921875 68.371094-16.921875s52.175781 5.691407 68.367188 16.914063c.074218.054687.148437.109375.226562.160156 14.90625 10.414062 24.542969 25.679688 29.464844 46.664062.007812.035157.019531.074219.027344.109376 1.15625 4.933593 2.070312 10.285156 2.707031 15.90625.46875 4.117187 4.191406 7.074218 8.296875 6.605468 4.117187-.46875 7.074218-4.183594 6.605468-8.300781-.414062-3.632813-.929687-7.179687-1.550781-10.597656 17.855469-6.511719 31.609375-23.949219 31.351563-41.265625-.378906-24.039063-12.890625-39.75-35.21875-44.234375-16.84375-3.394531-31.761719 3.46875-40.589844 18.132812-17.96875-10.019531-41.359375-15.09375-69.6875-15.09375s-51.71875 5.074219-69.6875 15.09375c-8.824219-14.664062-23.746094-21.527343-40.585938-18.136719-22.332031 4.488282-34.84375 20.199219-35.21875 44.242188-.261718 17.308594 13.492188 34.746094 31.347657 41.257812-1.914063 10.554688-2.851563 22.222657-2.851563 35.433594 0 9.527344.921875 18.640625 2.742188 27.210938h-65.671875c-.238281 0-.472657.007812-.707031.027344-.007813 0-.019532.003906-.03125.003906-.035157.003906-.070313.007812-.105469.007812-.023438.003906-.050781.007813-.074219.007813-.03125.003906-.058594.007812-.085938.011719-.027343.003906-.058593.007812-.085937.011718s-.050781.007813-.078125.011719c-.035156.003906-.070312.007813-.105469.015625-.019531.003906-.039062.007812-.058593.007812-.039063.007813-.078126.015626-.117188.023438-.015625 0-.035156.007812-.054688.011719-.039062.003906-.074218.011719-.109374.019531-.019532.003906-.042969.007812-.0625.011719-.039063.011719-.074219.019531-.109376.027343-.019531.003907-.039062.007813-.0625.011719-.03125.007813-.0625.015625-.09375.023438-1.277343.328125-2.476562.996093-3.457031 1.988281-.007812.007812-.015625.015625-.023437.023438-.027344.027343-.050782.050781-.074219.078124-.019531.023438-.042969.042969-.0625.066407-.015625.015625-.03125.03125-.046875.050781-.089844.097656-.175781.199219-.261719.300781l-68.03125 82.15625c-.027343.03125-.054687.0625-.078125.09375-2.304687 2.875-2.746094 6.726563-1.148437 10.050781 1.59375 3.324219 4.875 5.390626 8.5625 5.390626h40.464843l-2.15625 10.894531c-.917968 4.632812 2.632813 8.953125 7.355469 8.953125h13.332031v235.222656c0 4.140625 3.355469 7.5 7.5 7.5h359.984376c4.144531 0 7.5-3.359375 7.5-7.5v-25c0-4.140625-3.355469-7.5-7.5-7.5-4.140626 0-7.5 3.359375-7.5 7.5v17.5h-134.992188v-129h134.992188v79.5c0 4.140625 3.359374 7.5 7.5 7.5 4.144531 0 7.5-3.359375 7.5-7.5v-178.222656h13.332031c4.722656 0 8.273437-4.320313 7.359375-8.953125l-2.15625-10.894531h40.464844c3.683593 0 6.964843-2.066407 8.558593-5.390626 1.597657-3.324218 1.15625-7.175781-1.148437-10.050781zm-146.585938-218.429687c15.542969 3.125 22.910156 12.582031 23.179688 29.757812.152344 10.335938-8.71875 21.507813-19.871094 26.296875-5.617188-18.484375-15.160156-33.296875-28.46875-44.179687 3.828125-6.628906 11.429688-14.644532 25.160156-11.875zm-237.8125 29.765625c.269532-17.183594 7.636719-26.640625 23.183594-29.765625 13.726562-2.765625 21.328125 5.246094 25.15625 11.875-13.308594 10.882812-22.855469 25.699218-28.46875 44.179687-11.152344-4.789062-20.023438-15.957031-19.871094-26.289062zm101.445313 85.183593c0-13.277343 9.773437-20.011718 29.050781-20.011718 8.734375 0 29.050781 1.949218 29.050781 20.011718 0 6.878907-2.453125 13.347657-6.953125 18.488282h-44.195312c-4.5-5.140625-6.953125-11.609375-6.953125-18.488282zm-205.742188 103.921876 41.699219-50.351563-9.964844 50.351563zm62.300781 133.570312h134.992188v129h-134.992188zm194.992188 129h-45v-129h45zm-194.992188-144v-45h344.984376v45zm194.992188-83.722656v23.722656h-45v-23.722656zm149.992188 23.71875h-134.992188v-23.71875h134.992188zm-268.488282-38.71875c-4.140625 0-7.5 3.359375-7.5 7.5s3.355469 7.5 7.5 7.5h58.496094v23.71875h-134.992188v-23.71875h44.496094c4.144532 0 7.5-3.359375 7.5-7.5s-3.355468-7.5-7.5-7.5c-22.523437 0-41.242187 0-63.699218 0 1.855468-9.367188 15.140624-76.527344 17.863281-90.28125h347.664062c2.726563 13.785156 16.007813 80.910156 17.863281 90.28125-10.984374 0-273.085937 0-287.691406 0zm299.054688-19.847656-9.964844-50.351563 41.699219 50.351563zm0 0"/></svg>