<?xml version="1.0" encoding="utf-8"?>
<!-- Generator: Adobe Illustrator 23.0.6, SVG Export Plug-In . SVG Version: 6.00 Build 0)  -->
<svg version="1.1" id="Слой_1" xmlns="http://www.w3.org/2000/svg" xmlns:xlink="http://www.w3.org/1999/xlink" x="0px" y="0px"
	 viewBox="0 0 511 511" style="enable-background:new 0 0 511 511;" xml:space="preserve">
<style type="text/css">
	.st0{fill:#F8C3D6;}
	.st1{fill:#D49052;}
	.st2{fill:#FEE4CD;}
	.st3{fill:#FF2B58;}
	.st4{fill:#E1EAF0;}
	.st5{fill:#333333;}
	.st6{fill:#3BB7FF;}
	.st7{fill:#258AEF;}
	.st8{fill:#DF2F56;}
</style>
<g>
	<g>
		<g>
			<path class="st0" d="M202.8,56L202.8,56c-4.3,1.8-9.2-0.2-11.1-4.4L181,26.5c-1.8-4.2,0.2-9.2,4.4-11l0,0c4.2-1.8,9.2,0.2,11,4.4
				L207.2,45C209,49.2,207,54.2,202.8,56z"/>
		</g>
		<g>
			<path class="st0" d="M304.8,55.9L304.8,55.9c-4.3-1.9-6.2-6.8-4.4-11.1l10.9-25c1.8-4.2,6.8-6.2,11.1-4.3l0,0
				c4.2,1.8,6.2,6.8,4.3,11.1l-10.9,25C314,55.8,309,57.8,304.8,55.9z"/>
		</g>
	</g>
	<g>
		<g>
			<path class="st1" d="M96.3,138.7c-7.4-6.9-35.3-85.4-19.9-97.6c6.8-5.4,39,51.4,52.1,57.3C129.8,114.3,123.5,141.4,96.3,138.7z"
				/>
		</g>
	</g>
	<g>
		<g>
			<path class="st1" d="M407.9,141.5c7.4-6.9,35.3-85.4,19.9-97.6c-6.8-5.4-39,51.4-52.1,57.3C374.4,117,380.7,144.2,407.9,141.5z"
				/>
		</g>
	</g>
	<g>
		<path class="st1" d="M433.3,192.1c-10.9-44.8-28.7-83.2-51.3-99.1c-0.9-0.6-1.8-1.3-2.8-1.9c-9.9-6.3-18.1-15-23.4-25.4
			c-3.4-6.7-7.2-12.1-11.1-15.3c-35.6-29.3-148.8-29.3-184.5,0c-4.3,3.5-8.5,9.7-12.1,17.2c-4.9,10.1-12.2,18.7-21.2,25.3
			c0,0-0.1,0.1-0.1,0.1c-22.2,16.4-40.4,54.7-52,99.1H433.3z"/>
	</g>
	<g>
		<path class="st2" d="M428.4,192.1c-8.1-41.7-22.9-76.7-42.6-92.5c-0.8-0.6-23.6-20.1-61.8-23.8c-18-1.7-90.9-5.1-149.5,3.4
			c-16.5,2.2-32.2,8.2-37.3,12.5c0,0-18.1,13.8-18.1,13.8c-18.7,15.7-31,47.8-38.4,86.6H428.4z"/>
	</g>
	<g>
		<path class="st3" d="M256,105.9c0,0,44.2,24.5,49,26c0,0-4.2,21.6-11.9,30.4c-13.4,15.4-55.7,21.4-77-0.7
			c-9.7-10.1-11.2-28.1-11.2-28.1L256,105.9z"/>
	</g>
	<g>
		<polygon class="st4" points="276.8,121.5 254.8,105.9 233,121.5 236.8,144 273,144 		"/>
	</g>
	<g>
		<path class="st0" d="M253,92.6c5.8,0,19.3-15.6,14.7-19.1c-7.6-5.9-23.2-5-29.5-0.3C233.7,76.6,247.2,92.6,253,92.6z"/>
	</g>
	<g>
		<path class="st5" d="M365.2,136.2c-21.6,2.6-69.4-10.7-91-24.1l-5.5-3.9c-0.7-0.6-1.3-1.2-1.9-1.7c-3.4-3.4-5.2-8-6.2-12.3
			c5.4-3.8,10.5-10.4,12-14.9c1.9-5.6-0.8-8.6-2.1-9.5c-9.4-7.3-27.2-6.3-35.2-0.4c-1.3,1-4.1,3.8-2.2,9.5c1.7,5,7.4,12.3,13.2,16.1
			c-1,4.1-2.8,8.3-6,11.6c-14.9,14.9-73.7,32.7-98.3,29.7c-3.4-0.4-6.5,2-6.9,5.4c-0.4,3.4,2,6.5,5.4,6.9c2.2,0.3,4.6,0.4,7.2,0.4
			c13.8,0,33.1-3.5,51.5-9.1c0.8,4.7,2.5,11.4,6.5,18.1c6.5,11.1,20.3,24.4,49.1,24.4c17,0,30.3-4.9,39.6-14.5
			c9.1-9.4,11.9-21.1,12.8-28.1c18.6,5.7,38.3,9.3,52.2,9.3c2.6,0,5-0.1,7.2-0.4c3.4-0.4,5.8-3.5,5.4-6.9
			C371.7,138.2,368.6,135.8,365.2,136.2z M270.1,124.3l-2.3,13.6H242l-2.3-13.6l15.1-10.8l6.6,4.7c1.8,1.5,3.9,2.9,6.1,4.4
			L270.1,124.3z M242.3,76.2c1.6-0.8,3.9-1.5,6.4-1.8c0.3,0,0.6-0.1,1-0.1c2.6-0.3,5.5-0.2,8.1,0.2c0.3,0.1,0.7,0.1,1,0.2
			c1.8,0.4,3.5,1,4.9,1.8c-0.5,1.5-2,3.6-3.8,5.6c-0.1,0.1-0.1,0.1-0.2,0.2c-2.3,2.7-5.1,5.1-6.7,5.5c-1.3-0.4-3.5-2.1-5.5-4.3
			c0,0,0,0-0.1-0.1C245.1,81,243,78.1,242.3,76.2z M285.5,159.2c-6.9,7.1-17.2,10.7-30.6,10.7c-18.2,0-31.1-6-38.2-17.9
			c-3.8-6.3-5-12.8-5.4-16.2c5.9-2.1,11.6-4.5,16.8-6.9l2.7,16.2c0.5,3,3.1,5.1,6.1,5.1H273c3,0,5.6-2.2,6.1-5.1l2.5-15.1
			c4.3,1.9,8.9,3.8,13.6,5.5C295,139.9,293.5,150.9,285.5,159.2z"/>
		<path class="st5" d="M211.6,67.2c1.4,0.8,3,1.2,4.7,1.2c5.5,0,10-4.5,10-10c0-3.5-1.8-6.5-4.5-8.3c-1.6-1-3.5-1.7-5.5-1.7
			c-5.5,0-10,4.5-10,10C206.3,62.2,208.4,65.5,211.6,67.2z"/>
		<path class="st5" d="M289.6,68.4c2,0,3.8-0.6,5.4-1.6c2.8-1.8,4.6-4.9,4.6-8.4c0-5.5-4.5-10-10-10c-1.5,0-3,0.4-4.3,1
			c-3.3,1.6-5.7,5-5.7,9C279.6,64,284.1,68.4,289.6,68.4z"/>
		<path class="st5" d="M440.4,190.9c-5.8-24.2-12.7-43.1-19.7-57.9c8.9-20,19.7-55.8,18.9-76.6c-0.4-8.8-2.7-14.8-7.2-18.3
			c-1.9-1.5-4.3-2.2-6.8-1.8c-6.9,0.9-13.3,8.9-28.8,29.8c-4,5.4-9.4,12.7-14.2,18.6c-8.8-5.7-15.8-13.4-20.4-22.3
			c-4.1-7.9-8.4-13.8-13-17.6c-3.3-2.7-7.3-5.3-11.8-7.6l2.2-4.9c5-11.4-0.2-24.8-11.7-29.8c0,0,0,0,0,0c-2.9-1.3-5.9-1.9-9-1.9
			c0,0,0,0,0,0c-9,0-17.2,5.3-20.8,13.6l-4.4,10.1c-12.7-2-26.6-3-41.3-3c-13.8,0-26.9,0.9-38.9,2.7l-4.1-9.6
			C205.8,6,197.6,0.6,188.5,0.6c0,0,0,0,0,0c-3.1,0-6,0.6-8.9,1.8c-5.6,2.4-9.9,6.8-12.2,12.4c-2.3,5.6-2.2,11.8,0.2,17.3l1.7,4.1
			c-5.4,2.6-10.1,5.5-14,8.6c-5,4.1-9.7,10.7-14,19.6c-3.3,6.8-12.8,16.6-17.1,20.7c-5.4-6.2-12.2-15.4-16.9-21.8
			C92,42.5,85.5,34.5,78.7,33.6c-2.5-0.3-4.9,0.3-6.8,1.8C67.3,39,65,45,64.6,53.8c-1,23.1,12.6,64.9,21.8,82.7
			c-6.5,14.1-13,31.7-18.7,53.8c-0.6,2.2-0.1,4.5,1.3,6.3s3.5,2.8,5.7,2.8l358.7,0.5c0,0,0,0,0,0c2.2,0,4.3-1,5.7-2.8
			C440.5,195.4,441,193.1,440.4,190.9z M408.4,74.7c5-6.7,11.8-16,16.4-21c0.1,0.5,0.1,1.1,0.2,1.7c1.4,14.8-6.3,42.2-13.2,61.1
			c-6.4-10.4-12.5-17.7-17.9-22.8C398.2,88.5,402.9,82.2,408.4,74.7z M311.1,19.9c1.4-3.1,4.5-5,7.7-5c1.1,0,2.3,0.2,3.3,0.7l0,0
			c4.2,1.8,6.2,6.8,4.3,11.1l-2.2,5.1c-5-1.8-10.5-3.3-16.3-4.7L311.1,19.9z M180.8,26.5c-1.8-4.2,0.2-9.2,4.4-11l0,0
			c1.1-0.5,2.2-0.7,3.3-0.7c3.3,0,6.4,1.9,7.7,5.1l2.8,6.6c-5.8,1.3-11.3,2.7-16.4,4.4L180.8,26.5z M79.2,52.7
			c0.1-0.6,0.1-1.2,0.2-1.7c4.6,5,11.4,14.3,16.4,21c7.1,9.6,12.8,17.2,17.8,22.9c-5.6,5.7-12.1,13.8-18.8,25.3
			C87.4,101.6,77.7,69.3,79.2,52.7z M84.1,184.9c4.1-14.3,8.8-27.3,13.8-38.8c2.4-5.4,4.8-10.4,7.4-15.1c5-9.1,10.3-16.9,15.7-23
			c3.2-3.6,6.5-6.7,9.9-9.2l0.1-0.1c1.4-1,2.8-2.1,4.1-3.2c8.2-6.9,14.8-15.4,19.4-24.8c3.3-6.8,6.9-12.1,10.2-14.7
			c2.9-2.4,6.4-4.5,10.4-6.5c3.9-1.9,8.4-3.7,13.2-5.2c5.1-1.6,10.6-3,16.5-4.2c4.6-0.9,9.4-1.7,14.5-2.3c10.3-1.3,21.4-2,33-2
			c12.5,0,24.4,0.8,35.3,2.3c5,0.7,9.9,1.5,14.4,2.5c5.9,1.3,11.4,2.8,16.4,4.5c4.9,1.7,9.3,3.5,13.1,5.6c3.2,1.7,6,3.5,8.4,5.5
			c2.9,2.4,6.2,7,9.3,13c5.2,10.2,13,19.1,22.6,25.9c1.1,0.8,2.2,1.6,3.4,2.3c0.9,0.6,1.7,1.1,2.5,1.7c2.1,1.5,4.2,3.2,6.3,5.2
			c7.3,7,14.3,16.9,20.6,29.2c2.3,4.5,4.6,9.3,6.7,14.4c4.7,11.2,9,23.8,12.6,37.6L84.1,184.9z"/>
	</g>
</g>
<g>
	<rect x="43.9" y="297.2" class="st6" width="423.2" height="205.9"/>
</g>
<g>
	<path class="st7" d="M43.9,297.2h423.2v42.6H43.9V297.2z"/>
</g>
<g>
	<rect x="216.1" y="297.2" class="st3" width="78.9" height="205.9"/>
</g>
<g>
	<path class="st8" d="M216.1,305.2h78.9v34.7h-78.9V305.2z"/>
</g>
<g>
	<path class="st4" d="M43.8,192.1L27.3,297.2h457.5l-16.6-105.1H43.8z"/>
</g>
<path class="st5" d="M510.5,270.5l-35.2-81.4c-0.8-1.9-2.4-3.4-4.3-4.1c-0.1-0.1-0.3-0.1-0.4-0.1c-0.2-0.1-0.4-0.1-0.6-0.2
	c-0.2,0-0.4-0.1-0.7-0.1c-0.1,0-0.2,0-0.3,0c-0.3,0-0.5,0-0.8,0H43.8c-0.1,0-0.3,0-0.4,0c-0.2,0-0.3,0-0.5,0c-0.3,0-0.6,0.1-0.9,0.2
	c0,0-0.1,0-0.1,0c-2.6,0.7-4.6,2.6-5.4,5.1L0.8,270.5c-1.7,2.8-1.8,6.1-0.4,9.1C2,283,5.3,285,9.1,285h12.4l-1.7,11
	c-0.3,2.2,0.3,4.5,1.7,6.2c1.5,1.7,3.6,2.7,5.8,2.7h9.1v198.2c0,4.2,3.4,7.6,7.6,7.6H216c0,0,0,0,0,0h78.9c0,0,0,0,0,0h172.2
	c4.2,0,7.6-3.4,7.6-7.6v-35c0-4.2-3.4-7.6-7.6-7.6s-7.6,3.4-7.6,7.6v27.4H302.5V304.9h157.1v126.6c0,4.2,3.4,7.6,7.6,7.6
	s7.6-3.4,7.6-7.6V304.9h10.1c2.2,0,4.4-1,5.8-2.7c1.5-1.7,2.1-3.9,1.7-6.2l-1.7-11h11.6c3.7,0,7.1-2.1,8.7-5.5
	C512.3,276.6,512.2,273.3,510.5,270.5z M23.8,269.8h-6l9.4-21.1L23.8,269.8z M287.4,495.5h-63.7V304.9h63.7V495.5z M474.7,289.6
	h-15.1H121.9c-4.2,0-7.6,3.4-7.6,7.6s3.4,7.6,7.6,7.6h86.6v190.7H51.4V304.9h36.3c4.2,0,7.6-3.4,7.6-7.6s-3.4-7.6-7.6-7.6H51.4H36.3
	h-0.1l0.1-0.8l0.6-3.7l2.4-15.3l7-44.4l4-25.6h1.1h2.8h403.5h1.7h2.2l4,25.5l7,44.5l1.9,12.2l0.5,3.1l0.7,4.5H474.7z M488.2,269.8
	l-3.1-19.5l8.4,19.5H488.2z"/>
</svg>
