<?xml version="1.0" encoding="utf-8"?>
<!-- Generator: Adobe Illustrator 23.0.6, SVG Export Plug-In . SVG Version: 6.00 Build 0)  -->
<svg version="1.1" id="Слой_1" xmlns="http://www.w3.org/2000/svg" xmlns:xlink="http://www.w3.org/1999/xlink" x="0px" y="0px"
	 viewBox="0 0 511 511" style="enable-background:new 0 0 511 511;" xml:space="preserve">
<style type="text/css">
	.st0{fill:#CCCCCC;}
	.st1{fill:#999999;}
	.st2{fill:#FF9711;}
	.st3{fill:#FFDD50;}
	.st4{fill:#D67205;}
	.st5{fill:#333333;}
</style>
<path class="st0" d="M377.3,331.9H134.5c-12.6,0-22.8-10.2-22.8-22.8V150.8c0-79.5,64.7-144.2,144.2-144.2h0
	c79.5,0,144.2,64.7,144.2,144.2v158.3C400.1,321.7,389.9,331.9,377.3,331.9z M157.3,286.3h197.2V150.8c0-54.4-44.2-98.6-98.6-98.6
	c-54.4,0-98.6,44.2-98.6,98.6V286.3z"/>
<path class="st1" d="M130.2,309.1V150.8c0-76.4,59.7-139.1,134.9-143.9c-3.1-0.2-6.1-0.3-9.2-0.3h0c-79.5,0-144.2,64.7-144.2,144.2
	v158.3c0,12.6,10.2,22.8,22.8,22.8H153C140.4,331.9,130.2,321.7,130.2,309.1z"/>
<path class="st1" d="M274.4,52.2c-3.1,0-6.2,0.2-9.2,0.4c50.1,4.7,89.4,46.9,89.4,98.2v135.6H373V150.8
	C373,96.4,328.8,52.2,274.4,52.2z"/>
<path class="st2" d="M375.2,216.8H136.6c-33.2,0-60.2,26.9-60.2,60.2v165.3c0,33.2,26.9,60.2,60.2,60.2h238.6
	c33.2,0,60.2-26.9,60.2-60.2V276.9C435.4,243.7,408.4,216.8,375.2,216.8z"/>
<path class="st3" d="M136.6,477.1c-19.2,0-34.9-15.6-34.9-34.9V276.9c0-19.2,15.6-34.9,34.9-34.9h238.6c19.2,0,34.9,15.6,34.9,34.9
	v165.3c0,19.2-15.6,34.9-34.9,34.9H136.6z"/>
<path class="st4" d="M294.5,338.9c0-21.7-17.9-39.2-39.7-38.6c-20,0.6-36.4,16.7-37.4,36.7c-0.8,17,9.4,31.7,24,37.6v39.2
	c0,8,6.5,14.5,14.5,14.5s14.5-6.5,14.5-14.5v-39.2C284.5,368.9,294.5,355.1,294.5,338.9z"/>
<path class="st5" d="M255.9,435.9c12.2,0,22.1-9.9,22.1-22.1v-34.4c14.8-8,24.1-23.4,24.1-40.5c0-12.6-5-24.3-14-33.1
	c-9-8.8-20.9-13.4-33.5-13c-23.9,0.7-43.6,20-44.7,43.9c-0.8,17.8,8.6,34.4,24,42.8v34.4C233.8,426,243.7,435.9,255.9,435.9z
	 M225,337.4c0.8-16,14-29,30-29.4c0.3,0,0.6,0,0.9,0c8.1,0,15.7,3.1,21.6,8.8c6.1,5.9,9.4,13.8,9.4,22.2c0,12.7-7.6,23.9-19.3,28.7
	c-2.9,1.2-4.7,3.9-4.7,7v39.2c0,3.8-3.1,6.9-6.9,6.9s-6.9-3.1-6.9-6.9v-39.2c0-3.1-1.9-5.9-4.7-7C232.1,362.7,224.3,350.5,225,337.4
	z"/>
<path class="st5" d="M435.4,362.9c4.2,0,7.6-3.4,7.6-7.6v-78.3c0-25.6-14.3-47.9-35.3-59.5v-66.7c0-40.5-15.8-78.6-44.5-107.3
	C334.5,14.8,296.4-1,255.9-1c-42.7,0-83.7,18.2-112.5,50c-2.8,3.1-2.6,7.9,0.5,10.7c3.1,2.8,7.9,2.6,10.7-0.5
	c25.9-28.6,62.8-45,101.2-45c36.4,0,70.7,14.2,96.5,40.1c25.8,25.8,40.1,60.1,40.1,96.5v60.6c-5.5-1.5-11.3-2.2-17.3-2.2h-13.1
	v-58.4c0-58.6-47.6-106.2-106.2-106.2c-58.6,0-106.2,47.6-106.2,106.2v58.4h-13.1c-6,0-11.8,0.8-17.3,2.2v-60.6
	c0-24,6.4-47.7,18.4-68.4c2.1-3.6,0.9-8.3-2.7-10.4c-3.6-2.1-8.3-0.9-10.4,2.7c-13.4,23-20.4,49.3-20.4,76v66.7
	c-21,11.5-35.3,33.9-35.3,59.5v165.3c0,37.4,30.4,67.8,67.8,67.8h238.6c37.4,0,67.8-30.4,67.8-67.8v-56.6c0-4.2-3.4-7.6-7.6-7.6
	s-7.6,3.4-7.6,7.6v56.6c0,29-23.6,52.6-52.6,52.6H136.6c-29,0-52.6-23.6-52.6-52.6V276.9c0-29,23.6-52.6,52.6-52.6h238.6
	c29,0,52.6,23.6,52.6,52.6v78.3C427.8,359.5,431.2,362.9,435.4,362.9z M164.9,150.8c0-50.2,40.8-91,91-91c50.2,0,91,40.8,91,91v58.4
	h-182V150.8z"/>
</svg>
