<?xml version="1.0" encoding="utf-8"?>
<!-- Generator: Adobe Illustrator 23.0.6, SVG Export Plug-In . SVG Version: 6.00 Build 0)  -->
<svg version="1.1" id="Слой_1" xmlns="http://www.w3.org/2000/svg" xmlns:xlink="http://www.w3.org/1999/xlink" x="0px" y="0px"
	 viewBox="0 0 230 150" style="enable-background:new 0 0 230 150;" xml:space="preserve">
<style type="text/css">
	.st0{fill:#42241F;}
	.st1{fill:#EA0029;}
	.st2{fill:#4C2924;}
	.st3{fill:#ED002F;}
	.st4{fill:#C10230;}
	.st5{fill:#FFCD00;}
	.st6{fill:#333333;}
</style>
<g>
	<path class="st0" d="M49.2,0H10C4.5,0,0,4.5,0,10v125.8c18.3-5.5,55.1-17.2,92.9-33.3C67.7,75.2,51.6,39.5,49.2,0 M220,0H99.9
		c1.7,30.2,11,58.4,26.1,82.7c0.7,1.2,1.1,2.6,1.2,3.9c38.1-19.5,77.2-50.3,102.9-72.4V10C230,4.5,225.5,0,220,0"/>
	<path class="st1" d="M99.9,0H49.2c2.3,39.5,18.5,75.2,43.7,102.5c10.9-4.6,21.8-9.7,32.4-15c0.6-0.3,1.2-0.6,1.8-0.9
		c0-1.4-0.4-2.7-1.2-3.9C110.9,58.4,101.6,30.2,99.9,0"/>
	<path class="st2" d="M230,14.1c-25.7,22.1-64.7,52.9-102.9,72.4c0,1.8-0.5,3.6-1.7,5c-4.7,6.1-9.9,11.8-15.4,17.2
		c-1.5,1.5-3.5,2.2-5.5,2.2c-2,0-4-0.8-5.5-2.3c-2.1-2.1-4.2-4.2-6.2-6.3C55.1,118.6,18.3,130.4,0,135.8v4.2c0,5.5,4.5,10,10,10h210
		c5.5,0,10-4.5,10-10V14.1"/>
	<path class="st3" d="M127.1,86.6c-0.6,0.3-1.2,0.6-1.8,0.9c-10.6,5.3-21.6,10.4-32.4,15c2,2.2,4,4.3,6.2,6.3
		c1.5,1.5,3.5,2.3,5.5,2.3c2,0,4-0.7,5.5-2.2c5.5-5.4,10.7-11.1,15.4-17.2C126.6,90.1,127.2,88.4,127.1,86.6"/>
	<g>
		<path class="st4" d="M11.9,75.5c0.2,0.4,0.4,0.7,0.7,1.1c0.5,0.8,1,1.7,1.6,2.5c0.1,0.2,0.3,0.4,0.4,0.7c2,3.2,4.2,6.3,6.4,9.3
			c5.3,7.1,11.1,13.8,17.5,19.9c0.4,0.4,0.8,0.7,1.2,0.9c3,1.9,7.1,1.6,9.7-1c5.5-5.4,10.7-11.1,15.4-17.2c2-2.6,2.2-6.2,0.5-9
			C50.2,58.4,40.9,30.2,39.2,0H10C4.5,0,0,4.5,0,10v41.5C3.1,59.3,6.8,66.8,11,74C11.3,74.5,11.6,75,11.9,75.5z"/>
		<path class="st5" d="M142,65.7c0.2-0.4,0.4-0.8,0.6-1.1c0.1-0.2,0.2-0.3,0.3-0.5C152.6,44.6,158.6,22.9,160,0h-50
			c1.4,23.6,7.7,45.8,18,65.7C130.9,71.5,139,71.5,142,65.7z"/>
	</g>
	<path class="st6" d="M38.4,151.5H10c-6.3,0-11.5-5.2-11.5-11.5V10C-1.5,3.7,3.7-1.5,10-1.5h171.6c0.8,0,1.5,0.7,1.5,1.5
		s-0.7,1.5-1.5,1.5H10c-4.7,0-8.5,3.8-8.5,8.5v130c0,4.7,3.8,8.5,8.5,8.5h28.4c0.8,0,1.5,0.7,1.5,1.5S39.2,151.5,38.4,151.5z"/>
	<path class="st6" d="M187.7,1.5h-1c-0.8,0-1.5-0.7-1.5-1.5s0.7-1.5,1.5-1.5h1c0.8,0,1.5,0.7,1.5,1.5S188.6,1.5,187.7,1.5z"/>
	<path class="st6" d="M220,151.5H46c-0.8,0-1.5-0.7-1.5-1.5s0.7-1.5,1.5-1.5h174c4.7,0,8.5-3.8,8.5-8.5V10c0-4.7-3.8-8.5-8.5-8.5
		h-27.6c-0.8,0-1.5-0.7-1.5-1.5s0.7-1.5,1.5-1.5H220c6.3,0,11.5,5.2,11.5,11.5v130C231.5,146.3,226.3,151.5,220,151.5z"/>
</g>
</svg>
