<?xml version="1.0" encoding="utf-8"?>
<!-- Generator: Adobe Illustrator 23.0.6, SVG Export Plug-In . SVG Version: 6.00 Build 0)  -->
<svg version="1.1" id="Слой_1" xmlns="http://www.w3.org/2000/svg" xmlns:xlink="http://www.w3.org/1999/xlink" x="0px" y="0px"
	 viewBox="0 0 512 512" style="enable-background:new 0 0 512 512;" xml:space="preserve">
<style type="text/css">
	.st0{fill:#26BAFF;}
	.st1{fill:#3B7DD4;}
	.st2{fill:#7F4A26;}
	.st3{fill:#935D35;}
	.st4{fill:#FFEC59;}
	.st5{fill:#F7BB4A;}
	.st6{fill:#333333;}
</style>
<path class="st0" d="M407.1,442.7c-99.5,16.5-202.3,16.5-301.8,0c-30.2-5-44.4-32-27.3-51.9c15.5-18,31-36.4,46.6-55.1
	c31.2-37.5,62.7-76.5,94.2-117.2c16.9-21.8,57.8-21.8,74.7,0c31.5,40.7,63,79.8,94.2,117.2c15.6,18.8,31.2,37.2,46.6,55.1
	C451.6,410.7,437.3,437.7,407.1,442.7z"/>
<path class="st1" d="M387.8,335.6c-1.2,0.3-2.4,0.5-3.6,0.7c-84.4,14-171.6,14-255.9,0c-1.2-0.2-2.4-0.4-3.6-0.7
	c31.2-37.5,62.7-76.5,94.2-117.2c16.9-21.8,57.8-21.8,74.7,0C325.1,259.1,356.6,298.2,387.8,335.6z"/>
<path class="st0" d="M384.2,305.9c-84.4,14-171.6,14-255.9,0c-25.6-4.2-37.7-27.1-23.1-44c19.1-22.3,38.5-45.2,57.9-69
	c20.4-24.9,41-50.7,61.6-77.2c14.3-18.5,49-18.5,63.3,0c20.6,26.5,41.1,52.3,61.6,77.2c19.4,23.7,38.7,46.7,57.9,69
	C421.8,278.8,409.8,301.6,384.2,305.9z"/>
<path class="st1" d="M349.4,192.9c-61.5,9.6-124.9,9.6-186.4,0c20.4-24.9,41-50.7,61.6-77.2c14.3-18.5,49-18.5,63.3,0
	C308.4,142.3,329,168,349.4,192.9z"/>
<path class="st0" d="M231.8,18.3c-30.9,39.9-61.8,77.4-92,112.6c-11.2,13-1.9,30.6,17.8,33.9c65,10.8,132.2,10.8,197.2,0
	c19.7-3.3,29-20.9,17.8-33.9c-30.2-35.2-61.1-72.7-92-112.6C269.5,4.1,242.9,4.1,231.8,18.3z"/>
<g>
	<path class="st1" d="M254.2,7.7L254.2,7.7c0,0-93.4,157.4-46.2,163.3c-16.9-1.3-33.8-3.4-50.5-6.1c-19.7-3.3-29-20.9-17.8-33.9
		c30.2-35.2,61.1-72.7,92-112.6C236.9,11.7,245.5,8.1,254.2,7.7z"/>
	<path class="st1" d="M220.8,196.5L201,255.9l-19.2,56.9c-17.9-1.7-35.8-4-53.6-6.9c-25.6-4.2-37.7-27.1-23.1-44
		c17.6-20.5,35.4-41.7,53.3-63.4c4.8-5.8,9.5-11.6,14.3-17.5L220.8,196.5z"/>
	<path class="st1" d="M173.8,451.4L173.8,451.4c-22.9-2-45.8-4.9-68.5-8.7c-30.2-5-44.4-32-27.3-51.9c14.1-16.4,28.4-33.2,42.6-50.3
		c8.7-10.4,17.5-21,26.2-31.7l1-1.6l50.1,28C197.9,335.2,102.4,430.4,173.8,451.4z"/>
</g>
<path class="st2" d="M307.3,492.8c-16.1,7.7-33.6,11.6-51.1,11.6c-3.7,0-7.3-0.2-11-0.5c-13.7-1.3-27.3-5-40.1-11.1l6.8-39.1h88.6
	l3.2,18.3L307.3,492.8z"/>
<path class="st3" d="M307.3,492.8c-16.1,7.7-33.6,11.6-51.1,11.6c-3.7,0-7.3-0.2-11-0.5V472h58.5L307.3,492.8z"/>
<path class="st4" d="M202.9,328.3c0,21-17.1,38.1-38.1,38.1s-38.1-17.1-38.1-38.1s17.1-38.1,38.1-38.1
	C185.8,290.2,202.9,307.2,202.9,328.3z"/>
<path class="st4" d="M386.1,231.3c0,21-17.1,38.1-38.1,38.1s-38.1-17.1-38.1-38.1s17.1-38.1,38.1-38.1
	C369,193.2,386.1,210.3,386.1,231.3z"/>
<path class="st4" d="M248.7,85.4c0,21-17.1,38.1-38.1,38.1s-38.1-17.1-38.1-38.1s17.1-38.1,38.1-38.1
	C231.6,47.4,248.7,64.4,248.7,85.4z"/>
<path class="st5" d="M176.6,364.5c-3.7,1.2-7.7,1.9-11.8,1.9c-21,0-38.1-17.1-38.1-38.1s17.1-38.1,38.1-38.1c4.1,0,8.1,0.6,11.8,1.9
	c-15.3,5-26.3,19.3-26.3,36.2S161.3,359.5,176.6,364.5z"/>
<path class="st5" d="M359.8,267.6c-3.7,1.2-7.7,1.9-11.8,1.9c-21,0-38.1-17-38.1-38.1c0-21,17.1-38.1,38.1-38.1
	c4.1,0,8.1,0.6,11.8,1.9c-15.3,5-26.3,19.3-26.3,36.2C333.5,248.2,344.5,262.6,359.8,267.6z"/>
<path class="st5" d="M222.4,121.7c-3.7,1.2-7.7,1.9-11.8,1.9c-21,0-38.1-17.1-38.1-38.1s17.1-38.1,38.1-38.1c4.1,0,8.1,0.6,11.8,1.9
	c-15.3,5-26.3,19.3-26.3,36.2S207.1,116.7,222.4,121.7z"/>
<path class="st6" d="M440.2,385.8c-5.7-6.7-11.5-13.4-17.2-20.1c-2.7-3.2-7.5-3.6-10.7-0.9s-3.6,7.5-0.9,10.7
	c5.7,6.7,11.5,13.5,17.2,20.2c5.3,6.2,6.9,13.4,4.4,20.3c-3.5,9.6-13.9,16.9-27.1,19.1c-99.3,16.4-200,16.4-299.3,0
	c-13.2-2.2-23.6-9.5-27.1-19.1c-2.5-6.9-1-14.1,4.4-20.3c13.5-15.7,27-31.6,40-47.2c7.5,15.1,23,25.5,41,25.5
	c25.2,0,45.7-20.5,45.7-45.7c0-1.9-0.1-3.8-0.4-5.6c15.4,0.9,30.7,1.3,46.1,1.3c35.5,0,71-2.4,106.1-7.1
	c9.9,12.1,20.1,24.4,30.2,36.5c1.5,1.8,3.7,2.7,5.8,2.7c1.7,0,3.5-0.6,4.9-1.8c3.2-2.7,3.6-7.5,0.9-10.7
	c-8.1-9.7-16.3-19.5-24.3-29.2c1.8-0.3,3.6-0.6,5.4-0.9c16.2-2.7,29.2-12.4,33.9-25.3c3.9-10.7,1.6-22.1-6.3-31.2
	c-6.8-8-13.2-15.4-19.5-22.8c0.1-0.9,0.1-1.8,0.1-2.7c0-23.3-17.5-42.6-40.1-45.4c-3.3-4.1-6.5-8-9.6-11.8c4-0.6,8.1-1.2,12-1.9
	c13.1-2.2,23.7-10.1,27.5-20.6c3.2-8.9,1.3-18.3-5.1-25.8c-31.6-36.7-62.4-74.5-91.8-112.3C280,5.1,268.6,0,256.2,0
	s-23.8,5.1-30.4,13.6C219,22.4,212,31.3,205,40c-22.6,2.8-40.2,22-40.2,45.4c0,1.3,0.1,2.5,0.2,3.8c-10.3,12.4-20.8,24.8-31,36.7
	c-6.5,7.5-8.3,16.9-5.1,25.8c3.8,10.5,14.4,18.4,27.5,20.6c4,0.7,8,1.3,12,1.9c-9.7,12-19.6,24-29.5,35.9c-2.7,3.2-2.2,8,1,10.7
	c1.4,1.2,3.2,1.8,4.9,1.8c2.2,0,4.4-0.9,5.9-2.7c11.9-14.3,23.8-28.9,35.5-43.3c23.2,2.7,46.6,4,70,4c23.4,0,46.8-1.4,70-4
	c2.9,3.6,5.8,7.2,8.9,11c-19,5.6-32.9,23.1-32.9,43.9c0,25.2,20.5,45.7,45.7,45.7c17.8,0,33.3-10.2,40.8-25.1
	c4.1,4.8,8.3,9.8,12.8,14.9c4.3,5,5.5,10.6,3.5,16.1c-2.8,7.7-11.3,13.7-22.1,15.5c-5.9,1-12.1,1.9-18.4,2.8
	c-52.5,7.4-106.1,9.4-159.2,5.9c-7.7-14.6-22.9-24.5-40.5-24.5c-13.8,0-26.2,6.2-34.6,15.9c-0.2,0-0.4-0.1-0.7-0.1
	c-10.8-1.8-19.3-7.7-22.1-15.5c-2-5.5-0.8-11.1,3.5-16.1c5.8-6.8,11.7-13.7,17.5-20.5c2.7-3.2,2.3-8-0.9-10.7s-8-2.3-10.7,0.9
	c-5.7,6.8-11.6,13.6-17.4,20.4c-7.9,9.1-10.1,20.5-6.3,31.2c4.2,11.5,15,20.5,28.9,24.2c-1.9,5-2.9,10.4-2.9,16c0,0.7,0,1.4,0.1,2.1
	c-15.2,18.3-31,36.9-46.9,55.4c-8.9,10.4-11.5,23.3-7.1,35.5c5.4,14.8,20.3,25.8,38.9,28.9c32.8,5.4,65.8,9.1,98.9,11l-5.2,30.3
	c-0.6,3.4,1.1,6.7,4.2,8.2c16.9,8.1,35.6,12.4,54.4,12.4c18.7,0,37.5-4.3,54.3-12.4c3.1-1.5,4.8-4.8,4.2-8.2l-5.2-30.3
	c33-1.9,66-5.6,98.8-11c18.7-3.1,33.6-14.2,38.9-28.9C451.7,409.1,449.1,396.2,440.2,385.8z M210.6,55c16.8,0,30.5,13.7,30.5,30.5
	S227.4,116,210.6,116s-30.5-13.7-30.5-30.5S193.8,55,210.6,55z M183.8,160.9c-8.3-1-16.7-2.2-24.9-3.6c-7.7-1.3-13.7-5.4-15.6-10.8
	c-1.3-3.6-0.5-7.3,2.4-10.7c8.1-9.5,16.4-19.2,24.6-29c7.7,14.4,22.9,24.3,40.4,24.3c25.2,0,45.7-20.5,45.7-45.7
	c0-20.8-14-38.4-33-43.9c4.9-6.2,9.7-12.4,14.5-18.6c3.8-4.8,10.6-7.7,18.4-7.7s14.6,2.9,18.4,7.7c29.5,38,60.5,76,92.2,112.9
	c2.9,3.3,3.7,7,2.4,10.7c-1.9,5.4-7.9,9.5-15.7,10.8c-8.2,1.4-16.6,2.6-24.9,3.6C280.6,166.7,231.8,166.7,183.8,160.9z M348,261.8
	c-16.8,0-30.5-13.7-30.5-30.5s13.7-30.5,30.5-30.5s30.5,13.7,30.5,30.5S364.8,261.8,348,261.8z M164.8,297.8
	c16.8,0,30.5,13.7,30.5,30.5s-13.7,30.5-30.5,30.5s-30.5-13.7-30.5-30.5S148,297.8,164.8,297.8z M298.7,488.2
	c-13.4,5.6-28,8.5-42.5,8.5s-29.1-2.9-42.5-8.5l4.6-26.3c12.7,0.5,25.3,0.8,38,0.8c12.7,0,25.3-0.3,38-0.8L298.7,488.2z"/>
</svg>
