<?xml version="1.0" encoding="utf-8"?>
<!-- Generator: Adobe Illustrator 23.0.6, SVG Export Plug-In . SVG Version: 6.00 Build 0)  -->
<svg version="1.1" id="Слой_1" xmlns="http://www.w3.org/2000/svg" xmlns:xlink="http://www.w3.org/1999/xlink" x="0px" y="0px"
	 viewBox="0 0 512 512" style="enable-background:new 0 0 512 512;" xml:space="preserve">
<style type="text/css">
	.st0{fill:#53555B;}
</style>
<g>
	<path class="st0" d="M301,145.2c-13.4,0-24.3,10.9-24.3,24.3c0,13.4,10.9,24.3,24.3,24.3c13.4,0,24.3-10.9,24.3-24.3
		C325.3,156.1,314.4,145.2,301,145.2z M301,178.6c-5,0-9.1-4.1-9.1-9.1s4.1-9.1,9.1-9.1c5,0,9.1,4.1,9.1,9.1S306,178.6,301,178.6z"
		/>
	<path class="st0" d="M308.9,212.1c-13.1,13.1-30.5,20.3-49,20.3c-18.5,0-35.9-7.2-49-20.3c-3-3-7.8-3-10.8,0s-3,7.8,0,10.8
		c16,16,37.2,24.8,59.8,24.8s43.8-8.8,59.8-24.8c3-3,3-7.8,0-10.8S311.9,209.1,308.9,212.1z"/>
	<path class="st0" d="M266.6,378.9c14.7,0,26.7-12,26.7-26.7c0-14.7-12-26.7-26.7-26.7c-14.7,0-26.7,12-26.7,26.7
		C240,366.9,251.9,378.9,266.6,378.9z M266.6,340.8c6.3,0,11.4,5.1,11.4,11.4c0,6.3-5.1,11.4-11.4,11.4c-6.3,0-11.4-5.1-11.4-11.4
		C255.2,345.9,260.3,340.8,266.6,340.8z"/>
	<path class="st0" d="M266.6,445.1c14.7,0,26.7-12,26.7-26.7c0-14.7-12-26.7-26.7-26.7c-14.7,0-26.7,12-26.7,26.7
		C240,433.2,251.9,445.1,266.6,445.1z M266.6,407.1c6.3,0,11.4,5.1,11.4,11.4c0,6.3-5.1,11.4-11.4,11.4c-6.3,0-11.4-5.1-11.4-11.4
		C255.2,412.2,260.3,407.1,266.6,407.1z"/>
	<path class="st0" d="M500.7,240.7l-17.2-11.1l19.5-16.2c3.2-2.7,3.7-7.5,1-10.7c-2.7-3.2-7.5-3.7-10.7-1l-14.9,12.4v-14.2
		c0-4.2-3.4-7.6-7.6-7.6s-7.6,3.4-7.6,7.6v27.3L430.3,260v-8.3c0-4.2-3.4-7.6-7.6-7.6c-4.2,0-7.6,3.4-7.6,7.6v23.5l-29.6,29.6
		c-10-12.9-22.1-24.3-35.6-33.5c17.9-20.8,28.8-47.9,28.8-77.4c0-18.4-4.1-36-12.2-52.4c-1.9-3.8-6.4-5.3-10.2-3.5
		s-5.3,6.4-3.5,10.2c7,14.3,10.6,29.6,10.6,45.7c0,57.1-46.4,103.5-103.5,103.5c-56.2,0-102.1-45-103.4-100.9
		c3.7-1.1,7.1-2.9,10-5.5c6.4-5.7,13.1-11.1,19.9-16.3c2.4,11,12.1,19.2,23.8,19.2c13.4,0,24.3-10.9,24.3-24.3
		c0-8.4-4.2-15.8-10.7-20.1c28.4-16.8,58.9-30.1,90.5-39.2c1.5-0.4,2.9-1,4.2-1.6c8.4,5.8,15.9,12.7,22.3,20.7
		c1.5,1.9,3.7,2.9,6,2.9c1.7,0,3.3-0.5,4.7-1.7c3.3-2.6,3.8-7.4,1.2-10.7c-6.6-8.3-14.2-15.5-22.7-21.8c0.6-1.1,1.2-2.2,1.7-3.3
		c3.2-7.6,2.7-16.1-1.2-23.3l-15.7-28.8c-5.9-10.9-18.5-16.3-30.5-13.1c-0.1,0-0.2,0.1-0.4,0.1C255.9-1.1,210-9,173,11.2l-13.4,7.3
		c-37,20.2-55.1,63.1-44.4,103.3c-0.1,0.1-0.2,0.2-0.3,0.3c-9.1,8.4-11.4,21.9-5.4,32.7l15.7,28.7c3.5,6.3,9.2,10.9,16.1,12.9
		c0.6,29.5,12.1,56.5,30.6,76.9c-13.9,10-26,22-35.8,35.7l-81.2-59.7v-28.1c0-4.2-3.4-7.6-7.6-7.6c-4.2,0-7.6,3.4-7.6,7.6v22.5
		l-24.4-5.5c-4.1-0.9-8.2,1.6-9.1,5.7c-0.9,4.1,1.6,8.2,5.8,9.1l24.9,5.6l-7.2,17.6c-1.6,3.9,0.3,8.3,4.1,9.9
		c0.9,0.4,1.9,0.6,2.9,0.6c3,0,5.8-1.8,7-4.7l6.9-16.9l77.2,56.8c-9.6,16.5-16.2,34.8-19.2,54c-0.4,2.6,0.6,5.1,2.4,6.8
		c1.1,1,2.4,1.7,4,2c1.6,0.2,3.1,0,4.4-0.6c2.2-1,3.9-3.1,4.3-5.7c6-38.2,27.5-72.1,59.4-94c20.7,17.7,47.6,28.4,76.9,28.4
		c30.3,0,58-11.4,79-30.2c18.4,12,33.9,28.3,45,47.3c7.6,13.1,13,27.4,16.1,42.3c0,0,0.1,0,0.1,0c1.9,9.1,2.8,18.6,2.8,28.2
		c0,32-10.5,55.3-32,71.2c-18.8,13.9-46.8,22.2-83.1,24.7c-8,0.5-16.6,0.8-25.5,0.8c-43,0-75.2-6.2-98.3-18.9
		c-26.4-14.6-40.2-37.5-42.1-70c-0.2-4.1-3.8-7.3-7.9-7.1c-4.1,0.2-7.3,3.8-7.1,7.9c2.2,37.6,18.9,65.3,49.8,82.3
		c25.4,14,59.9,20.8,105.5,20.8c9.2,0,18.2-0.3,26.5-0.8c39.8-2.7,69.6-11.7,91-27.6c25.3-18.7,38.1-46.7,38.1-83.3
		c0-11.1-1.2-22.1-3.5-32.9c0,0,0.1,0,0.1,0c-3.4-15.9-9.3-31.1-17.5-45.2c-0.9-1.5-1.8-3.1-2.8-4.6l33.8-33.8l0,0l43.6-43.6
		l20.7,13.4c1.3,0.8,2.7,1.2,4.1,1.2c2.5,0,4.9-1.2,6.4-3.5C505.3,247.7,504.3,243,500.7,240.7z M210.2,178.6c-5,0-9.1-4.1-9.1-9.1
		s4.1-9.1,9.1-9.1s9.1,4.1,9.1,9.1S215.2,178.6,210.2,178.6z M166.9,31.9l13.4-7.3c28.5-15.6,63.3-11.1,86.9,10
		c-50.7,15.8-98.2,41.7-138.8,75.8C123.3,79.2,138.4,47.5,166.9,31.9z M146.8,182.2c-3.5-0.6-6.5-2.8-8.2-5.9l-15.7-28.7
		c-2.6-4.7-1.6-10.6,2.4-14.2c46-42.4,102.4-73.1,162.9-89c1-0.3,2-0.4,3-0.4c4.2,0,8.2,2.3,10.3,6.1l15.7,28.7
		c1.7,3.1,1.9,6.8,0.5,10.1c-1.4,3.3-4.1,5.7-7.5,6.7c-56.4,16.2-109.6,45.2-153.7,83.9C153.8,181.9,150.3,182.9,146.8,182.2z"/>
</g>
</svg>
